. 
  
http://www.torrentday.com/        :     The Hottest Private Tracker On The Net!!!
 
http://www.torrentday.com          :     Once & For all ;)


               www . TorrentDay . Com 

(((((((((((((= Enjoy No RAR releases =))))))))))))))))))))


...................................NFO:....................................

.[img]http://img443.imageshack.us/img443/2066/unst.jpg[/img]

Unstoppable.2010.BDRip.XVID.AC3.HQ.Hive-CM8




[b]Thx Hive

CM8 Doing It Right The First Time :D

Why download a touched up rip of a rip BRrip
Get the real deal BDRip
Enjoy


Source Chinese Bluray

Video: 720x304 @bitrate 2200 2pass
Audio: DTS to AC3 5.1 @448
Sample: yes included
Subs: yes in srt /subs[/b]


[url]http://www.imdb.com/title/tt0477080/[/url]


General
Complete name                    : Unstoppable.2010.BDRip.XVID.AC3.HQ.Hive-CM8.avi
Format                           : AVI
Format/Info                      : Audio Video Interleave
File size                        : 1.83 GiB
Duration                         : 1h 38mn
Overall bit rate                 : 2 657 Kbps
Writing application              : Nandub v1.0rc2
Writing library                  : Nandub build 1853/release

Video
ID                               : 0
Format                           : MPEG-4 Visual
Format profile                   : Advanced Simple@L5
Format settings, BVOP            : Yes
Format settings, QPel            : Yes
Format settings, GMC             : No warppoints
Format settings, Matrix          : Default (H.263)
Muxing mode                      : Packed bitstream
Codec ID                         : XVID
Codec ID/Hint                    : XviD
Duration                         : 1h 38mn
Bit rate                         : 2 199 Kbps
Width                            : 720 pixels
Height                           : 304 pixels
Display aspect ratio             : 2.40:1
Frame rate                       : 23.976 fps
Color space                      : YUV
Chroma subsampling               : 4:2:0
Bit depth                        : 8 bits
Scan type                        : Progressive
Bits/(Pixel*Frame)               : 0.419
Stream size                      : 1.51 GiB (83%)
Writing library                  : XviD 1.2.1 (UTC 2008-12-04)

Audio
ID                               : 1
Format                           : AC-3
Format/Info                      : Audio Coding 3
Mode extension                   : CM (complete main)
Codec ID                         : 2000
Duration                         : 1h 38mn
Bit rate mode                    : Constant
Bit rate                         : 448 Kbps
Channel(s)                       : 6 channels
Channel positions                : Front: L C R, Side: L R, LFE
Sampling rate                    : 48.0 KHz
Bit depth                        : 16 bits
Stream size                      : 316 MiB (17%)
Alignment                        : Split accross interleaves
Interleave, duration             : 42 ms (1.00 video frame)
Interleave, preload duration     : 500 ms



Denzel Washington ... Frank
Chris Pine ... Will
Rosario Dawson ... Connie
Ethan Suplee ... Dewey
Kevin Dunn ... Galvin
Kevin Corrigan ... Inspector Werner
Kevin Chapman ... Bunny
Lew Temple ... Ned
T.J. Miller ... Gilleece
Jessy Schram ... Darcy Colson
David Warshofsky ... Judd Stewart
Andy Umberger ... Janeway
Elizabeth Mathis ... Nicole
Meagan Tandy ... Maya



With an unmanned, half-mile-long freight train barreling toward a city, 
a veteran engineer and a young conductor race against the clock to prevent a catastrophe. 




[img]http://img52.imageshack.us/img52/9799/uuununnnunun.png[/img]
[img]http://img407.imageshack.us/img407/8002/uuunununnnunun.png[/img]
[img]http://img403.imageshack.us/img403/6701/uuunununnnununun.png[/img]
[img]http://img163.imageshack.us/img163/3981/uuununuunnnnununun.png[/img]
[img]http://img217.imageshack.us/img217/7820/uuununuununnnnununun.png[/img]
[img]http://img132.imageshack.us/img132/4664/uuununuunuunnnnnununun.png[/img]
[img]http://img24.imageshack.us/img24/9169/uuununuunuunnnunnnununu.png[/img]




label:

[img]http://img132.imageshack.us/img132/3253/unstoppable2010cdcover4.jpg[/img]



Greetz

iNK,LUSi,,MAGNET,CLASSiFiED,THC,LEGi0N,IMAGiNE,ViSiON,WBZ,FLAWL3SS,NOVA
Rapeseed,D2U,SAFC,goldadvance,MEMORY100,KaN1vE,Unevano,Pinnz,Wayne,Mr Hive
and all P2P groups 
Great Work Guys :D